nColumns=19
nRows=45
DataType=double
version=3
OpenSimVersion=4.1
endheader
time	ground_force_1_vx	ground_force_1_vy	ground_force_1_vz	ground_force_1_px	ground_force_1_py	ground_force_1_pz	ground_force_1_mx	ground_force_1_my	ground_force_1_mz	ground_force_2_vx	ground_force_2_vy	ground_force_2_vz	ground_force_2_px	ground_force_2_py	ground_force_2_pz	ground_force_2_mx	ground_force_2_my	ground_force_2_mz
2.69	0	0	0	1.37785	0	-0.238495	0	0	0	0	0	0	0.10821	0	-0.300775	0	0	0
2.695	0	0	0	1.38711	0	-0.23977	0	0	0	0	0	0	0.0996455	0	-0.297723	0	0	0
2.7	0	0	0	1.39302	0	-0.240894	0	0	0	0	0	0	0.0932845	0	-0.296359	0	0	0
2.705	0	0	0	1.39588	0	-0.242023	0	0	0	0	0	0	0.0894336	0	-0.295981	0	0	0
2.71	0	0	0	1.39629	0	-0.242978	0	0	0	0	0	0	0.0880686	0	-0.295029	0	0	0
2.715	0	0	0	1.39415	0	-0.243874	0	0	0	0	0	0	0.0890916	0	-0.295106	0	0	0
2.72	0	0	0	1.38989	0	-0.244384	0	0	0	0	0	0	0.0923347	0	-0.295974	0	0	0
2.725	0	0	0	1.3829	0	-0.244057	0	0	0	0	0	0	0.0976417	0	-0.297694	0	0	0
2.73	0	0	0	1.37372	0	-0.243508	0	0	0	0	0	0	0.104745	0	-0.299628	0	0	0
2.735	0	0	0	1.36206	0	-0.242863	0	0	0	0	0	0	0.113553	0	-0.301906	0	0	0
2.74	0	0	0	1.3482	0	-0.242545	0	0	0	0	0	0	0.123858	0	-0.304492	0	0	0
2.745	0	0	0	1.33212	0	-0.242431	0	0	0	0	0	0	0.13263	0	-0.307242	0	0	0
2.75	0	0	0	1.31415	0	-0.243632	0	0	0	0	0	0	0.14975	0	-0.309517	0	0	0
2.755	0	0	0	1.2943	0	-0.245055	0	0	0	0	0	0	0.164054	0	-0.314236	0	0	0
2.76	0	0	0	1.27279	0	-0.246874	0	0	0	0	0	0	0.17951	0	-0.317064	0	0	0
2.765	0	0	0	1.24981	0	-0.249002	0	0	0	0	0	0	0.196286	0	-0.318803	0	0	0
2.77	-56.0875	106.194	-9.10078	1.20557	0	-0.248432	0	-1.96079	0	0	0	0	0.21311	0	-0.321935	0	0	0
2.775	-106.026	284.942	-30.8195	1.10909	0	-0.239767	0	-3.26363	0	0	0	0	0.230943	0	-0.325071	0	0	0
2.78	-162.229	544.583	-64.3891	1.08261	0	-0.249985	0	-6.42589	0	0	0	0	0.249392	0	-0.328089	0	0	0
2.785	-203.679	862.714	-105.267	1.05778	0	-0.258596	0	-9.86652	0	0	0	0	0.268018	0	-0.330655	0	0	0
2.79	-218.052	1213.59	-140.837	1.03445	0	-0.265968	0	-8.23475	0	0	0	0	0.286879	0	-0.333522	0	0	0
2.795	-219.784	1561.5	-156.383	1.01269	0	-0.271576	0	3.34287	0	0	0	0	0.305879	0	-0.336359	0	0	0
2.8	-241.557	1858.42	-144.133	0.993349	0	-0.275525	0	19.5768	0	0	0	0	0.325096	0	-0.338991	0	0	0
2.805	-301.833	2073.26	-100.855	0.978667	0	-0.277907	0	29.5022	0	0	0	0	0.344106	0	-0.341769	0	0	0
2.81	-384.725	2221.52	-27.3961	0.969983	0	-0.278754	0	30.0233	0	0	0	0	0.362855	0	-0.344816	0	0	0
2.815	-458.456	2347.24	64.5095	0.964636	0	-0.278218	0	25.3654	0	0	0	0	0.381723	0	-0.348177	0	0	0
2.82	-499.898	2476.73	148.544	0.957196	0	-0.276998	0	16.5415	0	0	0	0	0.40069	0	-0.349809	0	0	0
2.825	-498.686	2602.08	194.902	0.942616	0	-0.276091	0	2.99755	0	0	0	0	0.419467	0	-0.350118	0	0	0
2.83	-451.743	2701.5	190.811	0.917737	0	-0.276107	0	-9.96695	0	0	0	0	0.438632	0	-0.353853	0	0	0
2.835	-360.976	2762.74	145.794	0.883127	0	-0.277093	0	-14.2921	0	0	0	0	0.45872	0	-0.355534	0	0	0
2.84	-243.218	2793.78	83.2788	0.844226	0	-0.278587	0	-8.13367	0	0	0	0	0.479454	0	-0.358987	0	0	0
2.845	-123.94	2806.98	27.7645	0.807565	0	-0.279866	0	2.96181	0	0	0	0	0.501525	0	-0.361449	0	0	0
2.85	-17.3087	2800.72	-4.66838	0.775213	0	-0.280604	0	11.5282	0	0	0	0	0.524958	0	-0.364669	0	0	0
2.855	80.7043	2768.94	-10.5178	0.746712	0	-0.280831	0	13.9814	0	0	0	0	0.549836	0	-0.366282	0	0	0
2.86	175.345	2709.38	-1.11686	0.721746	0	-0.280868	0	13.8934	0	0	0	0	0.576055	0	-0.368447	0	0	0
2.865	260.839	2618.9	8.37978	0.699159	0	-0.281055	0	17.1496	0	0	0	0	0.600589	0	-0.369607	0	0	0
2.87	332.828	2494.6	13.1801	0.677486	0	-0.281499	0	25.0337	0	0	0	0	0.632283	0	-0.371207	0	0	0
2.875	392.759	2335.66	20.1215	0.655212	0	-0.282001	0	33.3527	0	0	0	0	0.664658	0	-0.372826	0	0	0
2.88	443.212	2139.42	38.6609	0.630189	0	-0.282063	0	32.6513	0	0	0	0	0.694345	0	-0.372513	0	0	0
2.885	481.673	1900.65	69.2617	0.598277	0	-0.281515	0	14.7986	0	0	0	0	0.727053	0	-0.372348	0	0	0
2.89	505.1	1619.32	104.274	0.553513	0	-0.280432	0	-17.6779	0	0	0	0	0.760347	0	-0.371242	0	0	0
2.895	516.134	1311.87	132.397	0.491921	0	-0.279089	0	-51.8127	0	0	0	0	0.793992	0	-0.37012	0	0	0
2.9	513.469	1004.63	139.369	0.411498	0	-0.277804	0	-71.6287	0	0	0	0	0.828774	0	-0.368707	0	0	0
2.905	487.921	722.913	110.347	0.312695	0	-0.27801	0	-61.9417	0	0	0	0	0.863016	0	-0.366884	0	0	0
2.91	431.988	489.402	46.6756	0.208727	0	-0.281195	0	-16.1755	0	0	0	0	0.897321	0	-0.364999	0	0	0
